<?xml version="1.0" encoding="UTF-8" standalone="no"?>
<svg
   width="36"
   height="36"
   viewBox="0 0 36 36"
   fill="none"
   version="1.1"
   id="svg4"
   sodipodi:docname="Notebook_nav.svg"
   inkscape:version="1.1.1 (3bf5ae0d25, 2021-09-20)"
   xmlns:inkscape="http://www.inkscape.org/namespaces/inkscape"
   xmlns:sodipodi="http://sodipodi.sourceforge.net/DTD/sodipodi-0.dtd"
   xmlns="http://www.w3.org/2000/svg"
   xmlns:svg="http://www.w3.org/2000/svg">
  <defs
     id="defs8" />
  <sodipodi:namedview
     id="namedview6"
     pagecolor="#ffffff"
     bordercolor="#999999"
     borderopacity="1"
     inkscape:pageshadow="0"
     inkscape:pageopacity="0"
     inkscape:pagecheckerboard="0"
     showgrid="true"
     inkscape:zoom="7.9549513"
     inkscape:cx="9.2395286"
     inkscape:cy="18.03908"
     inkscape:window-width="1366"
     inkscape:window-height="697"
     inkscape:window-x="-8"
     inkscape:window-y="-8"
     inkscape:window-maximized="1"
     inkscape:current-layer="svg4">
    <inkscape:grid
       type="xygrid"
       id="grid825" />
  </sodipodi:namedview>
  <path
     d="m 25.312089,0 c 2.272366,0 4.114287,1.813248 4.114287,4.05 v 27.9 c 0,2.23668 -1.841921,4.05 -4.114287,4.05 H 6.1142858 C 3.8420296,36 2,34.18668 2,31.95 V 4.05 C 2,1.813248 3.8420296,0 6.1142858,0 Z m 0,2.7 H 6.1142858 C 5.3568729,2.7 4.7428569,3.304422 4.7428569,4.05 v 27.9 c 0,0.74556 0.614016,1.35 1.3714289,1.35 H 25.312089 c 0.757396,0 1.37143,-0.60444 1.37143,-1.35 V 4.05 c 0,-0.745578 -0.614034,-1.35 -1.37143,-1.35 z m 5.945053,20.70342 h 1.371428 c 0.694309,0 1.268115,0.50796 1.358995,1.16694 L 34,24.75342 V 27.45 c 0,0.68346 -0.516023,1.2483 -1.185281,1.33776 L 32.62857,28.8 h -1.371428 v -5.39658 h 1.371428 z m 0,-7.2 h 1.371428 c 0.694309,0 1.268115,0.50796 1.358995,1.16694 L 34,17.55342 V 20.25 c 0,0.68346 -0.516023,1.2483 -1.185281,1.33776 L 32.62857,21.6 h -1.371428 v -5.39658 h 1.371428 z m 0,-7.199928 h 1.371428 c 0.694309,0 1.268115,0.50787 1.358995,1.166814 L 34,10.353492 V 13.05 c 0,0.68346 -0.516023,1.248282 -1.185281,1.33767 L 32.62857,14.4 H 31.257142 V 9.003492 H 32.62857 Z M 22.569232,5.4 c 0.757396,0 1.37143,0.604422 1.37143,1.35 v 4.4973 c 0,0.745596 -0.614034,1.35 -1.37143,1.35 H 8.8571428 c -0.757413,0 -1.3714289,-0.604404 -1.3714289,-1.35 V 6.75 c 0,-0.745578 0.6140159,-1.35 1.3714289,-1.35 z M 21.197806,8.1 H 10.228571 v 1.7973 h 10.969235 z"
     fill="#212121"
     id="path2"
     style="stroke-width:1.81423" />
</svg>
