<?xml version="1.0" encoding="UTF-8" standalone="no"?>
<svg
   width="36"
   height="36"
   viewBox="0 0 36 36"
   fill="none"
   version="1.1"
   id="svg4"
   sodipodi:docname="Notebook_nav_selected.svg"
   inkscape:version="1.1.1 (3bf5ae0d25, 2021-09-20)"
   xmlns:inkscape="http://www.inkscape.org/namespaces/inkscape"
   xmlns:sodipodi="http://sodipodi.sourceforge.net/DTD/sodipodi-0.dtd"
   xmlns="http://www.w3.org/2000/svg"
   xmlns:svg="http://www.w3.org/2000/svg">
  <defs
     id="defs8" />
  <sodipodi:namedview
     id="namedview6"
     pagecolor="#ffffff"
     bordercolor="#999999"
     borderopacity="1"
     inkscape:pageshadow="0"
     inkscape:pageopacity="0"
     inkscape:pagecheckerboard="0"
     showgrid="false"
     inkscape:zoom="11.25"
     inkscape:cx="7.2444444"
     inkscape:cy="14.088889"
     inkscape:window-width="1366"
     inkscape:window-height="697"
     inkscape:window-x="-8"
     inkscape:window-y="-8"
     inkscape:window-maximized="1"
     inkscape:current-layer="svg4" />
  <path
     d="m 25.312091,0 c 2.272366,0 4.114286,1.813248 4.114286,4.05 v 27.9 c 0,2.23668 -1.84192,4.05 -4.114286,4.05 H 6.1142857 C 3.8420297,36 2,34.18668 2,31.95 V 4.05 C 2,1.813248 3.8420297,0 6.1142857,0 Z m 5.945052,23.40342 h 1.371428 c 0.694309,0 1.268115,0.50796 1.358995,1.16694 L 34,24.75342 V 27.45 c 0,0.68346 -0.516023,1.2483 -1.18528,1.33776 L 32.628571,28.8 h -1.371428 v -5.39658 h 1.371428 z m 0,-7.2 h 1.371428 c 0.694309,0 1.268115,0.50796 1.358995,1.16694 L 34,17.55342 V 20.25 c 0,0.68346 -0.516023,1.2483 -1.18528,1.33776 L 32.628571,21.6 h -1.371428 v -5.39658 h 1.371428 z m 0,-7.199928 h 1.371428 c 0.694309,0 1.268115,0.50787 1.358995,1.166814 L 34,10.353492 V 13.05 c 0,0.68346 -0.516023,1.248282 -1.18528,1.33767 L 32.628571,14.4 H 31.257143 V 9.003492 h 1.371428 z M 21.663726,6.295302 H 9.7739154 c -0.6942903,0 -1.268096,0.50787 -1.3589028,1.166814 l -0.012526,0.183186 v 2.706444 c 0,0.68346 0.5159497,1.248282 1.1853348,1.33767 l 0.1860937,0.01233 H 21.663726 c 0.694308,0 1.268114,-0.50787 1.358994,-1.166814 l 0.01243,-0.183186 V 7.645302 c 0,-0.745596 -0.614034,-1.35 -1.371428,-1.35 z"
     fill="#212121"
     id="path2"
     style="stroke-width:1.81423" />
</svg>
